<?xml version="1.0" encoding="utf-8"?>
<!-- Generator: Adobe Illustrator 16.0.0, SVG Export Plug-In . SVG Version: 6.00 Build 0)  -->
<!DOCTYPE svg PUBLIC "-//W3C//DTD SVG 1.1//EN" "http://www.w3.org/Graphics/SVG/1.1/DTD/svg11.dtd">
<svg version="1.1"
	 id="svg2" xmlns:dc="http://purl.org/dc/elements/1.1/" xmlns:cc="http://creativecommons.org/ns#" xmlns:rdf="http://www.w3.org/1999/02/22-rdf-syntax-ns#" xmlns:svg="http://www.w3.org/2000/svg" xmlns:sodipodi="http://sodipodi.sourceforge.net/DTD/sodipodi-0.dtd" xmlns:inkscape="http://www.inkscape.org/namespaces/inkscape" sodipodi:docname="Bing 2013.svg" inkscape:version="0.48.2 r9819"
	 xmlns="http://www.w3.org/2000/svg" xmlns:xlink="http://www.w3.org/1999/xlink" x="0px" y="0px" width="388.486px"
	 height="96.771px" viewBox="0 0 388.486 96.771" enable-background="new 0 0 388.486 96.771" xml:space="preserve">
<sodipodi:namedview  fit-margin-top="0.5" fit-margin-left="0.5" showgrid="false" inkscape:cy="22.390866" inkscape:cx="794.91438" inkscape:zoom="0.75041707" borderopacity="1.0" bordercolor="#666666" pagecolor="#ffffff" id="base" inkscape:window-maximized="1" inkscape:window-y="-8" inkscape:window-x="-8" inkscape:window-height="1028" inkscape:window-width="1920" fit-margin-right="0.5" inkscape:current-layer="layer1" inkscape:pageshadow="2" inkscape:document-units="px" inkscape:pageopacity="0.0" fit-margin-bottom="0.5">
	<inkscape:grid  enabled="true" visible="true" empspacing="5" id="grid2996" type="xygrid" snapvisiblegridlinesonly="true">
		</inkscape:grid>
</sodipodi:namedview>
<g id="layer1" transform="translate(40.5,164.03255)" inkscape:label="Layer 1" inkscape:groupmode="layer">
	<path id="path2998" sodipodi:nodetypes="cccccccccccc" inkscape:connector-curvature="0" fill="#FFB902" d="M-18.217-67.826
		L-40-83.096v-80.437l21.917,6.714v54.082l-21.282,18.971l51.939-27.326l-14.4-6.513l-9.745-21.131l48.138,14.752v23.524
		L-18.217-67.826z"/>
	<g id="flowRoot3000" transform="matrix(2.0428483,0,0,2.0428483,395.0588,582.03754)">
		<path id="path3009" sodipodi:nodetypes="cccccccccccsscssscscccss" inkscape:connector-curvature="0" fill="#FFB902" d="
			M-158.173-330.389h-0.078v2.891h-3.203v-29.609l3.203,0.954v12.171h0.078c1.575-2.656,3.88-3.984,6.914-3.984
			c2.565,0,4.574,0.895,6.025,2.686c1.452,1.79,2.178,4.19,2.178,7.197c0,3.346-0.814,6.025-2.441,8.037
			c-1.628,2.012-3.854,3.018-6.68,3.018C-154.821-327.03-156.819-328.15-158.173-330.389z M-158.252-338.456v2.793
			c0,1.654,0.537,3.057,1.611,4.209c1.074,1.152,2.438,1.729,4.092,1.729c1.94,0,3.46-0.742,4.561-2.227
			c1.1-1.484,1.65-3.548,1.65-6.192c0-2.227-0.514-3.971-1.543-5.234c-1.029-1.263-2.422-1.895-4.18-1.895
			c-1.862,0-3.359,0.648-4.492,1.944C-157.685-342.033-158.252-340.409-158.252-338.456L-158.252-338.456z"/>
		<path id="path3011" sodipodi:nodetypes="ccccccsccccccc" inkscape:connector-curvature="0" fill="#FFB902" d="M-137.227-352.066
			c-0.573,0-1.061-0.195-1.465-0.586c-0.403-0.391-0.605-0.885-0.605-1.484s0.202-1.097,0.605-1.494
			c0.403-0.397,0.892-0.596,1.465-0.596c0.586,0,1.084,0.198,1.494,0.596c0.41,0.397,0.615,0.895,0.615,1.494
			c0,0.573-0.205,1.061-0.615,1.465C-136.143-352.268-136.641-352.066-137.227-352.066z M-135.664-327.499h-3.203v-20h3.203
			V-327.499z"/>
		<path id="path3013" inkscape:connector-curvature="0" fill="#FFB902" d="M-113.739-327.499h-3.203v-11.406
			c0-4.245-1.55-6.367-4.648-6.367c-1.601,0-2.927,0.602-3.974,1.807c-1.048,1.204-1.573,2.724-1.573,4.56v11.406h-3.203v-20h3.203
			v3.32h0.078c1.511-2.526,3.698-3.789,6.563-3.789c2.188,0,3.861,0.707,5.019,2.119c1.159,1.413,1.738,3.454,1.738,6.123V-327.499z
			"/>
		<path id="path3015" sodipodi:nodetypes="ssccssccsssscccccscccccc" inkscape:connector-curvature="0" fill="#FFB902" d="
			M-91.078-329.1c0,7.344-3.516,11.015-10.547,11.015c-2.474,0-4.636-0.469-6.485-1.406l0.875-2.869
			c1.959,0.967,3.764,1.508,5.562,1.508c4.759,0,7.391-2.585,7.391-7.819v-2.188h-0.078c-1.523,2.552-3.815,3.828-6.875,3.828
			c-2.487,0-4.489-0.889-6.006-2.666c-1.517-1.777-2.341-4.196-2.341-7.191c0-3.398,0.882-6.067,2.516-8.073
			c1.634-2.005,3.917-3.066,6.756-3.066c2.695,0,4.647,0.976,5.95,3.138h0.078v-2.611h3.203V-329.1z M-94.281-336.542v-2.949
			c0-3.15-2.572-5.781-5.626-5.781c-4.636,0-6.295,4.219-6.328,8.203c0,3.805,1.934,7.196,5.879,7.196
			C-96.404-329.872-94.32-332.993-94.281-336.542z"/>
	</g>
</g>
<g>
	<path fill="#FFB902" d="M307.421,77.151V69.18h-0.155c-1.271,2.722-3.117,4.894-5.541,6.513s-5.112,2.43-8.067,2.43
		c-3.784,0-6.778-1.062-8.981-3.188s-3.305-4.808-3.305-8.049c0-6.946,4.601-11.145,13.803-12.597l12.247-1.827
		c0-8.554-3.214-12.831-9.643-12.831c-4.38,0-8.645,1.763-12.791,5.288v-4.316c1.478-1.166,3.479-2.164,6.007-2.994
		c2.527-0.829,4.905-1.244,7.135-1.244c4.095,0,7.264,1.271,9.506,3.81c2.241,2.541,3.363,6.234,3.363,11.081v25.895H307.421z
		 M296.457,57.322c-4.174,0.597-7.103,1.562-8.787,2.896c-1.686,1.336-2.527,3.506-2.527,6.513c0,2.359,0.784,4.303,2.353,5.832
		c1.567,1.529,3.752,2.294,6.551,2.294c3.836,0,7.024-1.419,9.564-4.258c2.54-2.838,3.811-6.499,3.811-10.983v-3.888L296.457,57.322
		z"/>
	<path fill="#FFB902" d="M351.239,77.151v-7.231h-0.156c-1.296,2.515-3.214,4.51-5.754,5.987c-2.541,1.478-5.404,2.216-8.593,2.216
		c-4.898,0-8.897-1.788-11.994-5.365c-3.098-3.577-4.646-8.515-4.646-14.813c0-6.428,1.691-11.631,5.074-15.61
		c3.383-3.979,7.77-5.968,13.161-5.968c5.961,0,10.212,2.449,12.752,7.348h0.156V18.209h3.576v58.942H351.239z M351.239,52.928
		c0-3.706-1.174-6.849-3.52-9.428c-2.346-2.579-5.501-3.868-9.467-3.868c-4.174,0-7.62,1.601-10.342,4.801
		c-2.722,3.202-4.083,7.602-4.083,13.2c0,5.495,1.225,9.739,3.675,12.733c2.449,2.993,5.604,4.49,9.467,4.49
		c4.536,0,8.048-1.405,10.536-4.219c2.488-2.812,3.733-6.24,3.733-10.283V52.928z"/>
	<path fill="#FFB902" d="M365.508,75.401v-4.315c1.348,1.167,2.98,2.087,4.899,2.761c1.918,0.674,3.577,1.011,4.977,1.011
		c6.246,0,9.37-2.553,9.37-7.659c0-1.763-0.688-3.266-2.061-4.51c-1.374-1.245-3.604-2.527-6.688-3.85
		c-3.811-1.658-6.487-3.376-8.029-5.151s-2.312-3.934-2.312-6.474c0-3.24,1.237-5.857,3.713-7.854
		c2.475-1.996,5.526-2.994,9.156-2.994c3.421,0,6.35,0.7,8.786,2.1v4.043c-2.954-1.918-6.014-2.877-9.175-2.877
		c-2.619,0-4.731,0.68-6.338,2.041c-1.607,1.361-2.41,3.13-2.41,5.307c0,1.893,0.505,3.428,1.516,4.607s3.24,2.534,6.688,4.062
		c4.146,1.866,6.999,3.597,8.554,5.19c1.556,1.595,2.333,3.714,2.333,6.357c0,3.162-1.186,5.773-3.558,7.834
		s-5.645,3.091-9.817,3.091C371.275,78.122,368.074,77.215,365.508,75.401z"/>
</g>
</svg>
